<?xml version="1.0" encoding="UTF-8"?>
<svg id="Livello_2" data-name="Livello 2" xmlns="http://www.w3.org/2000/svg" xmlns:xlink="http://www.w3.org/1999/xlink" viewBox="0 0 494 325">
  <defs>
    <style>
      .cls-1 {
        fill: #dca7f2;
        filter: url(#outer-glow-1);
      }

      .cls-2 {
        fill: #92d9ea;
        filter: url(#outer-glow-2);
      }

      .cls-3 {
        fill: #fff;
      }
    </style>
    <filter id="outer-glow-1" filterUnits="userSpaceOnUse">
      <feOffset dx="0" dy="0"/>
      <feGaussianBlur result="blur" stdDeviation="15"/>
      <feFlood flood-color="#c3f" flood-opacity="1"/>
      <feComposite in2="blur" operator="in"/>
      <feComposite in="SourceGraphic"/>
    </filter>
    <filter id="outer-glow-2" filterUnits="userSpaceOnUse">
      <feOffset dx="0" dy="0"/>
      <feGaussianBlur result="blur-2" stdDeviation="15"/>
      <feFlood flood-color="#0cf" flood-opacity="1"/>
      <feComposite in2="blur-2" operator="in"/>
      <feComposite in="SourceGraphic"/>
    </filter>
  </defs>
  <g id="Livello_1-2" data-name="Livello 1">
    <g>
      <path class="cls-1" d="m398.75,175.69c3.91-3.91,7.81-7.81,11.72-11.72.81-.81,1.63-1.63,2.44-2.44.16-.16.31-.31.47-.47.19-.19.39-.36.58-.55.44-.44.48,0-.37.25.38-.12.83-.58,1.19-.78.25-.15.52-.27.77-.41.7-.4-1.46.5-.32.12.55-.18,1.09-.36,1.65-.49.7-.16,1.16.13-.24,0,.32.03.7-.06,1.02-.07.23,0,.46,0,.68,0,.23,0,.46.02.68.04.65.07.46.04-.58-.09.49.21,1.15.23,1.67.4.32.1.66.29.98.35-1.28-.25-.87-.38-.33-.09.52.27,1.11.87,1.65,1.04-.92-.28-.81-.65-.24-.13.14.13.28.26.41.39,3.9,3.81,7.71,7.71,11.57,11.57.17.17.35.34.52.52s.57.79.75.82l-.49-.65c.14.19.28.38.41.58.19.29.38.6.54.9.31.57.27,1.22-.01-.18.06.32.25.66.35.97.16.53.18,1.17.39,1.67-.51-1.21-.11-1.02-.07-.24.01.23.02.45.02.68,0,.34-.03.68-.04,1.02-.04,1.18.29-1.52,0-.08-.13.62-.32,1.21-.52,1.81-.31.94.12-.42.2-.48-.17.11-.38.74-.49.93-.18.31-.38.59-.57.89-.55.86.19-.36.28-.36-.14,0-.65.72-.77.84-.53.54-1.07,1.07-1.61,1.61-4.35,4.35-8.7,8.7-13.06,13.06-2.22,2.22-2.39,6.29,0,8.49,2.4,2.2,6.11,2.37,8.49,0,4.1-4.1,8.2-8.2,12.3-12.3,2.67-2.67,5.07-5.25,6.53-8.84,2.68-6.56.91-14.26-3.88-19.35-3.87-4.11-7.99-8-11.98-11.99-3.97-3.97-9.49-6.33-15.15-5.68-3.98.46-7.49,1.94-10.55,4.55-.64.55-1.22,1.15-1.81,1.75-4.55,4.55-9.1,9.1-13.66,13.66-2.22,2.22-2.39,6.29,0,8.49s6.11,2.37,8.49,0h0Z"/>
      <path class="cls-3" d="m410.65,220.73c3.14,0,6.15-2.76,6-6s-2.64-6-6-6c-3.14,0-6.15,2.76-6,6s2.64,6,6,6h0Z"/>
      <path class="cls-2" d="m406.41,210.49c-5.96,5.96-11.92,11.92-17.89,17.89-9.44,9.44-18.87,18.87-28.31,28.31-2.06,2.06-4.1,4.14-6.18,6.18-.14.14-.28.28-.43.42-.2.19-1.77,1.48-.75.72-.54.4-1.1.78-1.67,1.13s-1.16.63-1.75.95c-.24.13-1.05.41.08,0-.23.09-.46.18-.69.26-1.31.47-2.64.78-4.01,1.01,1.21-.2-.04-.03-.58,0-.56.03-1.13.03-1.7.01-.33-.01-2.33-.25-.82,0-.64-.1-1.28-.22-1.91-.38s-1.26-.34-1.87-.55c-.31-.11-.61-.23-.92-.34.08.03.89.44.3.11-1.25-.69-2.48-1.32-3.64-2.18.9.67-.28-.28-.56-.54-.19-.18-.38-.36-.57-.54-.02-.02-.03-.03-.05-.05-.09-.09-.19-.19-.28-.28-.42-.42-.84-.84-1.26-1.26l-5.1-5.1c-6.23-6.23-12.47-12.47-18.7-18.7-8.83-8.83-17.66-17.66-26.48-26.48-10.12-10.12-20.25-20.25-30.37-30.37s-20.03-20.03-30.04-30.04c-8.53-8.53-17.05-17.05-25.58-25.58-5.67-5.67-11.33-11.33-17-17l-3.97-3.97c-4.59-4.59-11.21-6.14-17.11-2.95-2.89,1.56-5.32,4.58-7.61,6.88-4.16,4.16-8.31,8.31-12.47,12.47-9.31,9.31-18.61,18.61-27.92,27.92-1.91,1.91-4,3.74-5.73,5.82-4.63,5.56-4.29,13.46.67,18.69.55.58,1.13,1.13,1.7,1.7,8.4,8.4,16.8,16.8,25.2,25.2,7.22,7.22,14.38,14.49,21.65,21.65,2.94,2.9,6.99,4.7,11.18,4.21,3.8-.44,6.78-2.18,9.43-4.83,4.03-4.03,8.06-8.06,12.09-12.09,4.35-4.35,8.7-8.7,13.05-13.05.46-.46.93-.93,1.39-1.39.09-.09.18-.18.27-.27.18-.18.41-.35.58-.55.43-.48-.11.07-.22.15.35-.23.69-.46,1.05-.67.16-.09,1.08-.61.39-.24s.23-.08.42-.14c.54-.18,1.1-.27,1.64-.41-1.34.36.32.02.8.03.24,0,.48.04.72.04.71,0-1.03-.27.08.03.63.17,1.25.33,1.86.57-1.11-.43.17.16.54.39.15.09,1,.72.42.26-.54-.43.11.12.18.18.15.15.3.29.45.44,3.98,3.87,7.86,7.86,11.79,11.79.17.17.35.35.52.52.25.26.48.52.72.78-.08-.08-.49-.77-.17-.21.2.35.42.72.65,1.06.15.22.47,1.06.02-.1.12.3.23.61.32.92.08.25.42,1.88.3,1.09s.02.85.02,1.12c0,.32-.03.64-.06.96.06-.81.1-.61-.07.07-.13.55-.3,1.09-.51,1.62.48-1.24-.33.4-.53.76-.15.26-.69.77.03,0-.18.19-.34.38-.52.57-.07.07-.14.14-.21.21-.2.2-.4.4-.6.6-7.7,7.7-15.41,15.41-23.11,23.11-7.75,7.75-15.51,15.51-23.26,23.26-.23.23-.45.46-.68.68-.26.26-.52.51-.8.76-.26.23-.52.45-.78.67.17-.15.93-.65,0,0-.55.38-1.11.75-1.69,1.09s-1.17.61-1.76.91c1.05-.53-.2.07-.62.21-.62.21-1.24.39-1.88.54-.24.06-.47.11-.71.16-.03,0-1.54.26-.64.13.83-.12-.2.01-.41.03-.32.03-.65.04-.97.05-.57.02-1.13.02-1.7,0-.36-.02-2.29-.33-.82-.03-.64-.13-1.28-.23-1.91-.39s-1.26-.35-1.87-.57c-.31-.11-.61-.23-.92-.35.08.03.88.44.3.11-1.17-.67-2.32-1.28-3.43-2.05-.73-.5.64.62.01,0-.24-.24-.52-.45-.77-.69-.19-.18-.38-.36-.57-.54-.03-.03-.06-.06-.09-.09-.47-.46-.93-.93-1.39-1.39-6.21-6.21-12.42-12.42-18.63-18.63-9.87-9.87-19.75-19.75-29.62-29.62-9.1-9.1-18.19-18.19-27.29-27.29-4.06-4.06-8.19-8.06-12.18-12.19-.42-.43-.79-.89-1.2-1.33.81.88-.32-.47-.54-.81-.31-.49-.6-.98-.87-1.49-.15-.29-.28-.59-.44-.88-.35-.61.3.93-.07-.14-.4-1.15-.76-2.29-.99-3.48-.05-.24-.08-.48-.13-.71.26,1.27.06.49.04.16-.05-.72-.09-1.43-.08-2.16,0-.56.05-1.12.08-1.68.08-1.13,0-.05-.04.16.06-.32.11-.63.17-.95.26-1.26.63-2.51,1.12-3.7-.5,1.22.26-.45.44-.78.28-.51.58-1,.9-1.48.22-.33,1.16-1.46.4-.6.45-.52.9-1.03,1.38-1.52,1.1-1.12,2.21-2.21,3.32-3.32,7.08-7.08,14.16-14.16,21.24-21.24,10.05-10.05,20.11-20.11,30.16-30.16,8.7-8.7,17.39-17.39,26.09-26.09,2.49-2.49,4.98-4.98,7.47-7.47.54-.54,1.09-1.09,1.63-1.63.13-.13.26-.26.39-.38.43-.42.88-.81,1.34-1.2-.93.8.53-.37.82-.55.49-.32.99-.61,1.5-.88.29-.16.58-.3.88-.45s1.33-.45.14-.08c1.09-.34,2.14-.73,3.25-.97.31-.07.64-.1.95-.18-1.19.3-.52.05-.16.02.72-.05,1.44-.11,2.16-.11.56,0,1.12.02,1.68.06.32.02.64.06.96.1-.22-.03-1.26-.24-.16,0,1.28.29,2.49.67,3.73,1.06-1.09-.35.14.07.58.3.51.26,1.02.54,1.51.85.57.35,1.13.72,1.66,1.13-.96-.74.46.45.73.71.51.49,1.01,1,1.51,1.5,4.25,4.25,8.5,8.5,12.75,12.75,2.66,2.66,5.32,5.32,7.98,7.98,7.11,7.11,14.23,14.23,21.34,21.34,9.63,9.63,19.26,19.26,28.89,28.89,10.14,10.14,20.28,20.28,30.42,30.42,8.52,8.52,17.03,17.03,25.55,25.55,4.8,4.8,9.6,9.6,14.41,14.41,5.27,5.27,10.54,10.54,15.81,15.81,2.89,2.89,6.08,5.01,10.36,5.16,3.91.13,7.39-1.72,10.09-4.41,3.54-3.54,7.07-7.07,10.61-10.61,7.15-7.15,14.31-14.31,21.46-21.46,2.22-2.22,2.39-6.29,0-8.49-2.4-2.2-6.11-2.37-8.49,0-7.54,7.54-15.09,15.09-22.63,22.63-3.25,3.25-6.48,6.54-9.76,9.76-.07.07-.15.15-.22.22-.12.13-.26.25-.39.37.27-.24.85-.44,0-.09-1.07.44.58-.17-.13.03-.66.19.36.01.43,0-.32.02-.63.02-.95.03-1.15.03,0-.08.18.03-.18-.1-1.13-.45.07.13-.21-.1-.43-.27-.64-.35-.71-.25.53.63.02.04-.07-.09-.18-.17-.27-.25-1.54-1.6-3.14-3.14-4.71-4.71-4.51-4.51-9.02-9.02-13.53-13.53-5.52-5.52-11.04-11.04-16.56-16.56-8.94-8.94-17.88-17.88-26.82-26.82-10.24-10.24-20.49-20.49-30.73-30.73-9.39-9.39-18.79-18.79-28.18-28.18-6.52-6.52-13.05-13.05-19.57-19.57-3.14-3.14-6.27-6.27-9.41-9.41-4.42-4.42-8.67-9.38-13.73-13.1-9.73-7.14-23.47-6.3-32.83.93-1.93,1.49-3.59,3.24-5.3,4.95-2.78,2.78-5.56,5.56-8.34,8.34-9.03,9.03-18.07,18.07-27.1,27.1-10,10-20,20-30,30-6.59,6.59-13.19,13.19-19.78,19.78-2.44,2.44-4.83,4.88-6.55,7.93-5.98,10.61-4.06,24.05,4.44,32.71,4.05,4.13,8.18,8.18,12.27,12.27,9.26,9.26,18.51,18.51,27.77,27.77,9.84,9.84,19.67,19.67,29.51,29.51,6.08,6.08,12.16,12.16,18.23,18.23,3.89,3.89,8.36,7.04,13.79,8.42,9.59,2.44,19.62-.52,26.59-7.46,7.34-7.3,14.64-14.64,21.96-21.96,8.13-8.13,16.25-16.25,24.38-24.38,1.22-1.22,2.35-2.43,3.35-3.87,3.79-5.45,3.92-12.7,1.02-18.54-1.38-2.78-3.69-4.89-5.85-7.06-2.45-2.45-4.91-4.91-7.36-7.36-2.19-2.19-4.33-4.49-7.18-5.86-5.88-2.82-13.12-2.62-18.52,1.27-3.8,2.74-6.98,6.52-10.28,9.81-4.89,4.89-9.77,9.77-14.66,14.66-1.55,1.55-3.09,3.09-4.64,4.64-.24.24-.48.47-.71.71-.07.07-.71.6-.16.18.6-.45-.29.11-.42.21-.63.48.87-.16.1-.04-.2.03-.5.11-.69.19.89-.36.71-.03.18-.04-.32,0-.63,0-.95-.03.34.02,1.11.32.19-.05-1.04-.42.44.41-.13-.03-.18-.14-.43-.27-.63-.38.87.49.3.25.05-.02,0,0-.02-.02-.03-.03-.07-.07-.14-.14-.21-.21-.32-.32-.64-.64-.96-.96l-3.83-3.83c-4.33-4.33-8.65-8.65-12.98-12.98-9.07-9.07-18.14-18.14-27.21-27.21l-3.12-3.12c-.16-.16-.33-.33-.49-.49-.07-.07-.61-.72-.19-.17.45.6-.11-.29-.21-.42-.48-.63.16.87.04.1-.03-.2-.11-.5-.19-.69.36.89.03.71.04.18,0-.32,0-.63.03-.95-.06.79,0,.67.12-.04.1-.61-.08.2-.15.31.17-.26.34-.57.49-.85-.49.87-.24.3.03.04.05-.05.1-.1.15-.15.28-.29.57-.57.85-.85,1.2-1.2,2.39-2.39,3.59-3.59,9.26-9.26,18.53-18.53,27.79-27.79,4.25-4.25,8.51-8.51,12.76-12.76,1.25-1.25,2.49-2.49,3.74-3.74.31-.31.62-.63.94-.94.07-.07.13-.13.2-.2.01-.01.02-.02.03-.03.03-.03.34-.32.37-.35-.59.55-.23.29.21-.05.63-.48-.87.16-.1.04.2-.03.5-.11.69-.19-.89.36-.71.03-.18.04.32,0,.63,0,.95.03-.34-.02-1.11-.32-.19.05.37.15.78.47-.09-.08.19.12.43.28.64.36.52.22-.55-.61.16.15.04.04.08.08.12.12.32.34.66.66.99.99l4.59,4.59,18.02,18.02c8.76,8.76,17.52,17.52,26.28,26.28,10.12,10.12,20.25,20.25,30.37,30.37s20.19,20.19,30.29,30.29c8.65,8.65,17.29,17.29,25.94,25.94,5.88,5.88,11.76,11.76,17.64,17.64,4.71,4.71,8.96,9.25,15.47,11.67,9.77,3.62,21.01.68,28.31-6.55,2.24-2.22,4.47-4.47,6.7-6.7,9.55-9.55,19.1-19.1,28.66-28.66,5.65-5.65,11.3-11.3,16.94-16.94,2.22-2.22,2.39-6.29,0-8.49-2.4-2.2-6.11-2.37-8.49,0h0Z"/>
    </g>
  </g>
</svg>